<svg xmlns="http://www.w3.org/2000/svg" xmlns:xlink="http://www.w3.org/1999/xlink" width="236.54302978515625" height="234.947998046875" viewBox="0 0 236.54302978515625 234.947998046875" fill="none">
<path     fill="#000000"  d="M38.543 -2.4248e-14L206.543 -2.4248e-14C223.112 -2.4248e-14 236.543 13.4315 236.543 30L236.543 198C236.543 214.569 223.112 228 206.543 228L38.543 228C21.9745 228 8.54303 214.569 8.54303 198L8.54303 30C8.54303 13.4315 21.9745 -2.62771e-14 38.543 -2.4248e-14Z">
</path>
<ellipse cx="35.075897216796875" cy="116.60858154296875" rx="15.532867431640625" ry="15.60858154296875"   fill="#00FFFF" >
</ellipse>
<ellipse cx="40.77599334716797" cy="33.3365478515625" rx="21.23296356201172" ry="21.3365478515625"   fill="#00FFFF" >
</ellipse>
<path d="M128.33 107.133C107.946 92.283 85.543 77.9398 85.543 54.479C85.543 31.0181 104.7 12 128.33 12C151.96 12 148.02 12 170.978 12C193.936 12 207.501 12.0034 215.501 20.8102C223.502 29.6169 224.545 34.6149 224.545 83.3018C224.545 107.132 206.43 131.999 182.8 131.999C163.199 131.999 148.714 121.983 128.33 107.133Z" fill-rule="evenodd"  fill="#00FFFF" >
</path>
<path d="M35.7755 209.547L36.0971 216.62L74.3976 214.878L74.9864 227.824L80.8604 227.557L79.3637 194.651L73.4898 194.918L74.0759 207.805L35.7755 209.547Z"   fill="#FFFFFF" >
</path>
<path d="M36.4175 227.843L40.4676 221.963L32.2504 211.786L40.9632 199.136L53.4007 203.186L57.5869 197.108L12.865 184.081L8.30439 190.703L36.4175 227.843ZM28.6573 207.271L24.7524 202.469C21.6162 198.56 18.3965 194.667 14.9946 190.721L15.1307 190.523C20.0148 192.212 24.8154 193.915 29.5853 195.452L35.4642 197.389L28.6573 207.271Z"   fill="#FFFFFF" >
</path>
<path d="M28.7671 184.842L31.7245 191.142L46.8781 184.029L49.708 190.058C53.7871 198.749 60.8147 203.271 69.505 199.192C78.5755 194.934 78.663 187.072 74.4819 178.165L68.7967 166.053L28.7671 184.842ZM51.9837 181.633L66.6485 174.75L69.096 179.964C72.0788 186.318 71.8959 190.447 66.5731 192.946C61.4133 195.368 57.516 193.419 54.5586 187.119L51.9837 181.633Z"   fill="#FFFFFF" >
</path>
<path d="M89.4322 225.207C99.2665 230.973 110.538 227.288 117.731 215.021C124.923 202.754 122.452 191.428 112.617 185.662C102.835 179.927 91.7236 183.219 84.501 195.538C77.3087 207.805 79.6496 219.471 89.4322 225.207ZM92.5276 219.927C86.2129 216.225 85.4924 208.082 90.7121 199.179C95.9318 190.277 103.238 187.188 109.552 190.89C115.867 194.592 116.791 202.507 111.571 211.409C106.352 220.312 98.8423 223.63 92.5276 219.927Z"   fill="#FFFFFF" >
</path>
<path d="M120.616 213.57C120.427 219.327 122.561 223.84 126.581 227.573L131.142 223.941C128.35 221.208 126.591 218.088 126.723 214.071C126.979 206.275 133.618 201.51 144.053 201.852C154.427 202.192 160.609 207.737 160.359 215.353C160.243 218.891 158.474 221.595 156.118 223.859L160.434 227.722C163.461 225.12 166.241 220.889 166.42 215.432C166.787 204.218 158.441 195.119 144.109 194.65C129.596 194.174 120.98 202.476 120.616 213.57Z"   fill="#FFFFFF" >
</path>
<path d="M168.555 191.793L165.681 185.257L152.704 186.899L146.521 172.839L156.502 164.386L153.532 157.63L118.946 188.832L122.183 196.192L168.555 191.793ZM146.975 187.584L140.837 188.382C135.863 188.996 130.859 189.689 125.714 190.51L125.617 190.29C129.62 187.022 133.593 183.833 137.407 180.583L142.144 176.599L146.975 187.584Z"   fill="#FFFFFF" >
</path>
<path d="M204.976 186.777C208.515 177.788 205.254 170.185 198.666 167.591C192.637 165.217 188.259 167.492 184.259 171.591L179.638 176.285C176.946 179.029 174.365 181.817 170.792 180.41C167.609 179.157 166.599 175.664 168.247 171.477C169.676 167.848 172.215 165.495 175.515 163.828L172.681 158.908C168.312 160.669 164.521 164.4 162.609 169.257C159.509 177.129 162.146 184.68 168.623 187.23C174.652 189.604 179.437 186.458 182.695 183.098L187.393 178.371C190.563 175.234 192.812 172.96 196.553 174.433C200.014 175.795 201.282 179.454 199.347 184.367C197.765 188.387 194.228 191.637 190.16 193.453L193.132 199.008C198.401 196.762 202.756 192.415 204.976 186.777Z"   fill="#FFFFFF" >
</path>
<text x="130" y="80" fill="#000" font-size="48" font-family="Arial" text-anchor="start">#1</text>
<path d="M185.933 208.144L204.744 227.177L208.968 223.002L195.05 208.919L205.164 198.923L216.552 210.445L220.734 206.312L209.346 194.79L218.094 186.144L231.549 199.757L235.731 195.624L217.384 177.06L185.933 208.144Z"   fill="#FFFFFF" >
</path>
<g >
<path     fill="#FFFFFF"  d="M71.295 114.824L72.279 118.784L73.623 118.784L73.479 113.816L58.239 113.816L58.071 118.784L59.415 118.784L60.423 114.824L64.143 114.824C64.167 117.248 64.167 119.72 64.167 122.144L64.167 123.32C64.167 125.768 64.167 128.192 64.143 130.568L61.575 130.784L61.575 131.624L70.143 131.624L70.143 130.784L67.575 130.568C67.527 128.144 67.527 125.72 67.527 123.32L67.527 122.144C67.527 119.672 67.527 117.224 67.575 114.824L71.295 114.824ZM79.815 118.64L79.479 118.424L74.871 119.888L74.871 120.488L76.767 120.68C76.839 121.832 76.863 122.696 76.863 124.256L76.863 125.984C76.863 127.304 76.839 129.296 76.815 130.664L75.063 130.88L75.063 131.624L82.287 131.624L82.287 130.88L80.079 130.592C80.055 129.224 80.031 127.28 80.031 125.984L80.031 123.848C80.535 122.168 81.183 121.112 82.191 120.32L82.455 120.608C83.055 121.304 83.559 121.76 84.351 121.76C85.479 121.76 85.935 121.016 86.007 119.936C85.719 118.808 84.855 118.4 83.847 118.4C82.407 118.4 80.799 119.672 80.031 121.976L79.815 118.64ZM94.575 129.176C93.471 130.088 92.871 130.448 92.079 130.448C90.927 130.448 90.159 129.776 90.159 128.36C90.159 126.872 90.879 125.768 92.775 125.024C93.183 124.856 93.855 124.664 94.575 124.448L94.575 129.176ZM99.591 129.968C99.159 130.544 98.871 130.76 98.511 130.76C97.983 130.76 97.647 130.4 97.647 129.32L97.647 123.128C97.647 119.768 96.327 118.4 93.183 118.4C89.847 118.4 87.855 119.744 87.543 121.904C87.687 122.624 88.191 123.008 88.983 123.008C89.799 123.008 90.447 122.48 90.543 121.16L90.879 119.432C91.311 119.336 91.719 119.288 92.127 119.288C93.927 119.288 94.575 119.984 94.575 122.528L94.575 123.752C93.639 123.968 92.679 124.232 91.959 124.472C88.263 125.624 87.159 126.8 87.159 128.792C87.159 130.808 88.623 132.008 90.639 132.008C92.415 132.008 93.351 131.264 94.671 129.872C94.983 131.168 95.823 131.984 97.287 131.984C98.559 131.984 99.399 131.528 100.023 130.328L99.591 129.968ZM109.527 121.28C109.671 122.624 110.343 123.128 111.255 123.128C111.975 123.128 112.431 122.768 112.647 122C112.287 119.936 110.391 118.4 107.847 118.4C104.151 118.4 101.031 120.896 101.031 125.24C101.031 129.512 103.791 132.008 107.415 132.008C109.935 132.008 111.663 130.88 112.647 128.888L112.143 128.624C111.279 129.776 110.127 130.424 108.687 130.424C106.095 130.424 104.343 128.408 104.343 124.928C104.343 121.352 105.951 119.288 108.231 119.288C108.543 119.288 108.855 119.312 109.167 119.408L109.527 121.28ZM127.335 130.688L122.919 122.648L125.895 119.816L128.295 119.552L128.295 118.784L122.103 118.784L122.103 119.552L124.407 119.888L119.367 124.856L119.367 116L119.463 112.184L119.127 111.968L114.303 113L114.303 113.672L116.247 113.816L116.247 125.984C116.247 127.328 116.223 129.272 116.199 130.664L114.399 130.88L114.399 131.624L121.143 131.624L121.143 130.88L119.439 130.688C119.391 129.32 119.367 127.4 119.367 125.984L120.735 124.688L124.407 131.624L128.967 131.624L128.967 130.88L127.335 130.688Z">
</path>
</g>
<g >
<path     fill="#00FFFF"  d="M29.407 72.116L29.431 72.572Q29.431 74.444 28.975 76.628Q28.519 78.812 27.703 80.804Q26.887 82.796 25.579 84.116Q24.271 85.436 22.891 85.436Q21.511 85.436 20.731 84.62Q19.951 83.804 19.951 82.364Q19.951 80.084 21.799 77.408Q23.647 74.732 25.687 72.98Q25.687 70.676 25.159 70.172Q24.895 69.932 24.403 69.932Q23.911 69.932 22.963 70.364Q22.015 70.796 21.151 71.54L20.551 70.7Q21.415 69.644 23.083 68.696Q24.751 67.748 26.263 67.748Q28.663 67.748 29.239 70.532Q32.743 67.46 34.879 67.46Q35.935 67.46 36.667 68.3Q37.399 69.14 37.399 70.568Q37.399 71.996 36.223 76.316Q35.047 80.636 35.047 81.776Q35.047 82.916 35.767 82.916Q36.007 82.916 36.367 82.796L36.727 83.708Q35.167 84.788 33.799 84.788Q32.431 84.788 31.867 84.14Q31.303 83.492 31.303 82.436Q31.303 81.38 32.431 77Q33.559 72.62 33.559 71.564Q33.559 70.244 32.599 70.244Q31.447 70.244 29.407 72.116ZM22.423 83.156Q23.383 83.156 24.331 80.852Q25.279 78.548 25.615 74.948Q24.295 76.172 22.963 78.38Q21.631 80.588 21.631 82.004Q21.631 82.58 21.859 82.868Q22.087 83.156 22.423 83.156ZM53.167 71.18Q51.967 70.22 50.395 70.22Q48.823 70.22 46.303 70.844Q46.687 72.164 46.687 73.532Q46.687 74.9 46.615 75.74Q47.647 75.548 48.679 75.548Q49.711 75.548 50.695 75.932Q50.695 76.988 50.263 77.588Q49.183 77.18 47.767 77.18Q47.359 77.18 46.447 77.324Q45.895 81.044 44.275 83.24Q42.655 85.436 40.471 85.436Q39.151 85.436 38.335 84.644Q37.519 83.852 37.519 82.532Q37.519 80.732 39.019 79.112Q40.519 77.492 42.967 76.532Q43.135 75.812 43.135 74.408Q43.135 73.004 42.871 71.948Q42.271 72.092 41.527 72.092Q40.111 72.092 39.283 71.444Q38.455 70.796 38.455 69.776Q38.455 68.756 39.415 68.108Q40.375 67.46 41.911 67.46Q44.239 67.46 45.511 69.26Q47.383 68.252 48.175 67.868Q50.119 66.884 51.355 66.884Q52.591 66.884 53.311 68.012Q54.031 69.14 54.031 70.556Q53.935 70.748 53.167 71.18ZM40.111 83.132Q40.975 83.132 41.671 81.74Q42.367 80.348 42.703 78.332Q41.239 78.908 40.243 80.012Q39.247 81.116 39.247 82.1Q39.247 82.58 39.487 82.856Q39.727 83.132 40.111 83.132ZM40.255 69.98Q40.255 70.364 40.651 70.568Q41.047 70.772 41.527 70.772Q42.007 70.772 42.391 70.628Q41.791 69.452 40.879 69.452Q40.255 69.452 40.255 69.98ZM56.239 70.196Q54.247 70.196 53.023 71.18Q52.279 70.796 52.159 70.556Q52.159 69.116 52.879 68Q53.599 66.884 54.991 66.884Q56.431 66.884 59.551 68.468Q60.703 69.068 61.063 69.164Q61.999 68.42 63.139 67.94Q64.279 67.46 65.131 67.46Q65.983 67.46 66.703 67.964Q67.423 68.468 67.423 69.476Q67.423 70.484 66.619 71.252Q65.815 72.02 64.375 72.02Q63.727 72.02 62.947 71.816Q62.167 71.612 61.999 71.588Q61.255 72.332 60.355 73.64Q59.455 74.948 58.831 76.364Q59.215 76.316 59.407 76.316Q61.255 76.316 62.707 77.384Q64.159 78.452 64.159 80.324Q64.159 82.196 62.779 83.612Q61.399 85.028 59.047 85.028Q56.695 85.028 55.435 83.468Q54.175 81.908 54.175 79.82Q52.663 81.236 52.231 82.916Q51.679 82.82 51.175 82.568Q50.671 82.316 50.527 82.076Q51.463 79.7 54.511 77.612Q55.087 75.74 56.371 73.916Q57.655 72.092 59.119 70.676Q57.607 70.196 56.239 70.196ZM62.503 80.24Q62.503 80.24 62.503 79.73Q62.503 79.22 61.615 78.56Q60.727 77.9 59.791 77.9Q58.855 77.9 58.207 78.164Q57.967 78.98 57.967 80.12Q57.967 81.26 58.603 82.088Q59.239 82.916 60.235 82.916Q61.231 82.916 61.867 82.088Q62.503 81.26 62.503 80.24ZM65.911 69.644Q65.911 69.188 65.227 69.188Q64.543 69.188 63.391 70.196Q63.823 70.436 64.447 70.436Q65.071 70.436 65.491 70.22Q65.911 70.004 65.911 69.644Z">
</path>
</g>
</svg>
