<svg xmlns="http://www.w3.org/2000/svg" xmlns:xlink="http://www.w3.org/1999/xlink" width="957.1902618408203" height="861.4547576904297" viewBox="0 0 957.1902618408203 861.4547576904297" fill="none">
<path     fill="#FFFFFF" fill-opacity="0" d="M922.19 96.1065L922.19 374.927L922.19 424.386L922.19 667.547L686.03 734.276L644.376 425.678C613.782 425.82 584.075 425.958 556.132 426.088L599.89 734.276L364.281 426.982C362.194 426.991 361.11 426.997 361.11 426.997L136.98 766.107L65.1903 766.107L324.43 375.006L509.29 96.1065L521.75 183.936L548.875 374.976L637.53 374.965L599.89 96.1065L922.19 96.1065Z">
</path>
<path    stroke="rgba(255, 255, 255, 1)" stroke-width="70"    d="M324.429 375.006L65.1903 766.107L136.978 766.107L361.115 426.995M324.429 375.006L509.286 96.1065L521.752 183.939M324.429 375.006L599.887 734.275L521.752 183.939M324.429 375.006L922.19 374.922C922.19 374.922 922.19 404.6 922.19 424.387M922.19 667.543L922.19 96.1065L599.887 96.1065L686.033 734.275L922.19 667.543ZM922.19 667.543C922.19 667.543 922.19 521.649 922.19 424.387M521.752 183.939L361.115 426.995M361.115 426.995C361.115 426.995 697.758 425.429 922.19 424.387">
</path>
</svg>
