<svg xmlns="http://www.w3.org/2000/svg" xmlns:xlink="http://www.w3.org/1999/xlink" width="968.6406383514404" height="874.8719253540039" viewBox="0 0 968.6406383514404 874.8719253540039" fill="none">
<path d="M551.389 102.172L538.446 10.9836L302.707 366.652L302.706 366.653L43.4675 757.753L7.45034 812.09L163.249 812.09L173.628 796.389L372.149 496.033L579.562 766.554L660.745 872.438L603.876 471.885L621.253 471.804L658.798 749.94L664.193 789.905L703.001 778.939L939.158 712.208L964.641 705.007L964.641 72.0901L567.296 72.0901L572.652 111.772L604.939 350.951L586.706 350.954L563.855 190.004L563.855 190.003L551.389 102.172L551.389 102.172ZM442.417 472.636L533.221 472.213L553.93 618.078L442.417 472.636ZM691.843 471.476L722.774 700.611L894.641 652.046L894.641 470.534L747.457 471.217L691.843 471.476ZM894.641 350.91L894.641 142.09L647.38 142.09L675.572 350.941L894.641 350.91ZM516.006 350.963L507.522 291.206L468.023 350.97L516.006 350.963Z" stroke="rgba(117, 117, 117, 1)" stroke-width="8"    fill-rule="evenodd"  fill="#000000" fill-opacity="0">
</path>
</svg>
